<?xml version="1.0" encoding="utf-8"?>
<!-- Generator: Adobe Illustrator 25.2.0, SVG Export Plug-In . SVG Version: 6.00 Build 0)  -->
<svg version="1.1" id="Layer_1"
	xmlns="http://www.w3.org/2000/svg"
	xmlns:xlink="http://www.w3.org/1999/xlink" x="0px" y="0px" viewBox="0 0 457.92 433.43" style="enable-background:new 0 0 457.92 433.43;" xml:space="preserve">
	<style type="text/css">
	.st0{fill:rgb(29, 155, 240);}
	.st1{fill:rgb(29, 155, 240);stroke:#000000;stroke-width:5;stroke-miterlimit:10;}
	.st2{fill:#FFFFFF;}
	.st3{fill:#FFFFFF;}
	.st4{fill:#3F91F5;}
	</style>
	<path class="st0" d="M457.92,342.89"/>
	<path class="st1" d="M287.92,0"/>
	<g>
		<path class="st0" d="M404.21,325.79"/>
		<path class="st1" d="M401,0.89"/>
		<g>
			<path class="st2" d="M222.33,61.07c0,0,290.11,23.32,161.86,190.54l-65.82,72.38c0,0,58.83,54.02-6,81.64
			s-75.63,25.21-75.63,25.21"/>
			<path class="st2" d="M236.74,430.83c0,0-25.68,2.4-90.51-25.21s-6-81.64-6-81.64l-65.82-72.38
			C-53.84,84.39,223.53,61.07,223.53,61.07"/>
		</g>
		<g>
			<g>
				<path class="st3" d="M272.62,5.86c-0.03,3.29-0.41,6.54-0.99,9.78c-0.58,3.23-1.35,6.44-2.34,9.59
				c-1.01,3.15-2.23,6.24-3.66,9.24c-1.46,2.99-3.12,5.89-5.01,8.66c-1.89,2.77-3.98,5.42-6.24,7.94c-2.32,2.47-4.93,4.67-7.77,6.51
				c-2.88,1.78-5.88,3.36-9.05,4.47c-3.13,1.19-6.42,1.94-9.72,2.32l-0.15-0.48c1.4-0.92,2.85-1.63,4.23-2.49
				c1.38-0.84,2.77-1.62,4.1-2.51c2.71-1.65,5.23-3.54,7.72-5.4c2.45-1.93,4.83-3.9,7.18-5.95c2.33-2.07,4.5-4.34,6.49-6.78
				c1.95-2.47,3.71-5.1,5.29-7.85c1.6-2.74,3.02-5.6,4.25-8.55c2.49-5.89,4.28-12.14,5.17-18.53L272.62,5.86z"/>
			</g>
			<g>
				<path class="st3" d="M297.94,17.64c-0.63,3.22-1.59,6.36-2.75,9.43c-1.15,3.07-2.5,6.09-4.04,9.01
				c-1.56,2.91-3.32,5.73-5.28,8.42c-1.98,2.67-4.14,5.23-6.5,7.61c-2.36,2.38-4.9,4.61-7.58,6.68c-2.73,2.01-5.69,3.7-8.82,4.99
				c-3.15,1.23-6.39,2.24-9.71,2.75c-3.3,0.61-6.66,0.74-9.98,0.51l-0.06-0.5c1.54-0.65,3.1-1.09,4.61-1.68
				c1.51-0.58,3.02-1.09,4.48-1.72c2.97-1.13,5.78-2.53,8.57-3.91c2.76-1.45,5.46-2.96,8.14-4.55c2.67-1.61,5.22-3.45,7.61-5.49
				c2.37-2.07,4.57-4.34,6.63-6.76c2.07-2.4,3.99-4.95,5.73-7.63c3.51-5.34,6.41-11.16,8.45-17.28L297.94,17.64z"/>
			</g>
			<g>
				<path class="st3" d="M201.79,11.63c2.78,0.65,5.46,1.59,8.08,2.73c2.62,1.13,5.17,2.48,7.59,4.05c2.41,1.6,4.7,3.44,6.74,5.58
				c2.02,2.16,3.81,4.6,5.13,7.33c1.33,2.72,2.28,5.67,2.73,8.72c0.07,0.76,0.23,1.53,0.22,2.29c0,0.77,0.01,1.53-0.01,2.3
				c-0.16,1.51-0.3,3.04-0.71,4.49c-0.2,0.73-0.38,1.46-0.6,2.17c-0.27,0.7-0.52,1.4-0.8,2.09l-0.42,1.03l-0.49,0.99
				c-0.32,0.66-0.67,1.31-1.02,1.96c-0.72,1.28-1.58,2.47-2.38,3.66c-0.92,1.13-1.84,2.25-2.85,3.29l-0.43-0.26
				c0.36-1.42,0.82-2.75,1.25-4.08c0.37-1.35,0.8-2.67,1.17-3.98c0.16-0.67,0.32-1.33,0.51-1.98l0.27-0.97l0.19-0.99
				c0.12-0.66,0.27-1.3,0.41-1.95c0.11-0.65,0.19-1.3,0.29-1.95l0.16-0.96c0.04-0.32,0.05-0.65,0.08-0.97
				c0.04-0.64,0.15-1.28,0.18-1.92c0.03-1.28,0.14-2.56,0.06-3.83c-0.06-2.55-0.5-5.12-1.45-7.54c-0.94-2.42-2.33-4.69-3.99-6.78
				c-1.65-2.1-3.59-4.02-5.71-5.75c-4.22-3.49-9.15-6.26-14.33-8.32L201.79,11.63z"/>
			</g>
		</g>
		<g>
			<path class="st0" d="M215.13,267.56c0,23.7-1.23,40.13-13.21,46.82c-2.76,1.54-13.76-1.2-16.81-1.2c-4.53,0-11.77,2.09-15.61-1.2
			c-9.91-8.5-13.21-23.39-13.21-44.42c0-29.17,13.17-52.82,29.41-52.82S215.13,238.39,215.13,267.56z"/>
			<ellipse class="st2" cx="195.32" cy="289.77" rx="18.01" ry="26.41"/>
			<g>
				<path class="st4" d="M212.28,319.92c-4.04-1.49-8.19-2.71-12.38-3.62c-4.18-0.96-8.42-1.61-12.65-1.8
				c-2.12-0.11-4.23-0.04-6.31,0.16c-2.08,0.18-4.13,0.44-6.15,0.83c-0.51,0.08-1.02,0.17-1.52,0.3c-0.5,0.13-1.01,0.22-1.5,0.37
				l-1.49,0.42c-0.48,0.18-0.97,0.35-1.46,0.52c-1.94,0.74-3.82,1.68-5.71,2.8l-0.2-0.22c2.67-3.56,6.86-5.97,11.21-7.11
				c4.39-1.24,8.96-0.93,13.32-0.46c4.38,0.51,8.67,1.48,12.84,2.75c4.15,1.32,8.23,2.85,12.12,4.8L212.28,319.92z"/>
			</g>
			<circle class="st4" cx="198.32" cy="301.18" r="11.41"/>
		</g>
		<g>
			<path class="st0" d="M245.14,271.16c0,23.7,1.23,40.13,13.21,46.82c2.76,1.54,13.76-1.2,16.81-1.2c4.53,0,11.77,2.09,15.61-1.2
			c9.91-8.5,13.21-23.39,13.21-44.42c0-29.17-13.17-52.82-29.41-52.82C258.31,218.34,245.14,241.99,245.14,271.16z"/>
			<ellipse class="st2" cx="281.76" cy="292.17" rx="18.01" ry="26.41"/>
			<g>
				<path class="st4" d="M247.87,323.25c3.89-1.94,7.96-3.47,12.12-4.8c4.17-1.26,8.45-2.24,12.84-2.75
				c4.36-0.47,8.93-0.78,13.32,0.46c4.36,1.14,8.54,3.55,11.21,7.11l-0.2,0.22c-1.89-1.11-3.77-2.05-5.71-2.8
				c-0.49-0.17-0.98-0.34-1.46-0.52l-1.49-0.42c-0.49-0.15-1-0.24-1.5-0.37c-0.5-0.13-1-0.22-1.52-0.3
				c-2.02-0.38-4.07-0.64-6.15-0.83c-2.08-0.2-4.19-0.27-6.31-0.16c-4.23,0.2-8.47,0.85-12.65,1.8c-4.19,0.91-8.33,2.13-12.38,3.62
				L247.87,323.25z"/>
			</g>
			<circle class="st4" cx="282.36" cy="304.78" r="11.41"/>
		</g>
		<g>
			<g>
				<path class="st3" d="M306.75,198.79c0.65,1.49,1.12,3.04,1.46,4.63c0.18,0.79,0.28,1.6,0.43,2.41c0.07,0.81,0.17,1.63,0.22,2.45
				c0.13,3.28-0.3,6.63-1.4,9.8c-0.21,0.82-0.56,1.58-0.9,2.35c-0.34,0.77-0.62,1.58-1.08,2.29c-0.43,0.73-0.87,1.45-1.33,2.16
				c-0.52,0.67-1.1,1.27-1.67,1.89c-1.11,1.28-2.54,2.19-3.87,3.17c-1.4,0.89-2.93,1.57-4.45,2.16l-0.16-0.25
				c1.04-1.31,2.2-2.38,3.26-3.53c0.49-0.62,1.02-1.18,1.52-1.76c0.25-0.29,0.54-0.55,0.77-0.85l0.68-0.92
				c0.46-0.6,0.95-1.18,1.42-1.77c0.42-0.63,0.85-1.24,1.31-1.85c0.5-0.58,0.83-1.26,1.22-1.91c0.38-0.66,0.78-1.31,1.04-2.03
				c1.27-2.78,1.97-5.84,2.14-8.95c0.23-3.11-0.09-6.3-0.88-9.37L306.75,198.79z"/>
			</g>
			<g>
				<path class="st3" d="M296.94,202.13c1.12,2.06,1.82,4.31,2.26,6.65c0.41,2.34,0.42,4.8-0.09,7.21c-0.19,1.22-0.64,2.39-1.04,3.59
				c-0.56,1.12-1.16,2.25-2.08,3.12c-1.69,1.86-3.95,3.07-6.3,3.62l-0.15-0.26c0.35-0.52,0.73-0.96,1.1-1.4
				c0.37-0.44,0.79-0.81,1.1-1.28c0.65-0.9,1.4-1.66,1.93-2.58c0.66-0.82,1.12-1.74,1.76-2.58c0.5-0.91,1.06-1.82,1.36-2.85
				c0.67-2.02,0.96-4.22,0.92-6.44c-0.03-2.23-0.39-4.49-1.04-6.67L296.94,202.13z"/>
			</g>
			<g>
				<path class="st3" d="M313.76,217.96c0.15,2.34-0.16,4.68-0.74,6.98c-0.61,2.29-1.63,4.53-3.11,6.5c-0.69,1.03-1.58,1.9-2.45,2.82
				c-0.98,0.78-2,1.56-3.2,1.96c-2.31,0.98-4.87,1.13-7.24,0.64l-0.03-0.3c0.54-0.32,1.07-0.57,1.59-0.81
				c0.52-0.25,1.05-0.4,1.53-0.7c0.97-0.54,1.97-0.92,2.83-1.53c0.94-0.47,1.75-1.11,2.68-1.6c0.84-0.61,1.72-1.21,2.43-2.01
				c1.46-1.55,2.65-3.42,3.54-5.46c0.91-2.03,1.53-4.24,1.85-6.49L313.76,217.96z"/>
			</g>
		</g>
		<g>
			<g>
				<path class="st3" d="M217.91,195.19c0.65,1.49,1.12,3.04,1.46,4.63c0.18,0.79,0.28,1.6,0.43,2.41c0.07,0.81,0.17,1.63,0.22,2.45
				c0.13,3.28-0.3,6.63-1.4,9.8c-0.21,0.82-0.56,1.58-0.9,2.35c-0.34,0.77-0.62,1.58-1.08,2.29c-0.43,0.73-0.87,1.45-1.33,2.16
				c-0.52,0.67-1.1,1.27-1.67,1.89c-1.11,1.28-2.54,2.19-3.87,3.17c-1.4,0.89-2.93,1.57-4.45,2.16l-0.16-0.25
				c1.04-1.31,2.2-2.38,3.26-3.53c0.49-0.62,1.02-1.18,1.52-1.76c0.25-0.29,0.54-0.55,0.77-0.85l0.68-0.92
				c0.46-0.6,0.95-1.18,1.42-1.77c0.42-0.63,0.85-1.24,1.31-1.85c0.5-0.58,0.83-1.26,1.22-1.91c0.38-0.66,0.78-1.31,1.04-2.03
				c1.27-2.78,1.97-5.84,2.14-8.95c0.23-3.11-0.09-6.3-0.88-9.37L217.91,195.19z"/>
			</g>
			<g>
				<path class="st3" d="M208.1,198.53c1.12,2.06,1.82,4.31,2.26,6.65c0.41,2.34,0.42,4.8-0.09,7.21c-0.19,1.22-0.64,2.39-1.04,3.59
				c-0.56,1.12-1.16,2.25-2.08,3.12c-1.69,1.86-3.95,3.07-6.3,3.62l-0.15-0.26c0.35-0.52,0.73-0.96,1.1-1.4
				c0.37-0.44,0.79-0.81,1.1-1.28c0.65-0.9,1.4-1.66,1.93-2.58c0.66-0.82,1.12-1.74,1.76-2.58c0.5-0.91,1.06-1.82,1.36-2.85
				c0.67-2.02,0.96-4.22,0.92-6.44c-0.03-2.23-0.39-4.49-1.04-6.67L208.1,198.53z"/>
			</g>
			<g>
				<path class="st3" d="M224.92,214.36c0.15,2.34-0.16,4.68-0.74,6.98c-0.61,2.29-1.63,4.53-3.11,6.5c-0.69,1.03-1.58,1.9-2.45,2.82
				c-0.98,0.78-2,1.56-3.2,1.96c-2.31,0.98-4.87,1.13-7.24,0.64l-0.03-0.3c0.54-0.32,1.07-0.57,1.59-0.81
				c0.52-0.25,1.05-0.4,1.53-0.7c0.97-0.54,1.97-0.92,2.83-1.53c0.94-0.47,1.75-1.11,2.68-1.6c0.84-0.61,1.72-1.21,2.43-2.01
				c1.46-1.55,2.65-3.42,3.54-5.46c0.91-2.03,1.53-4.24,1.85-6.49L224.92,214.36z"/>
			</g>
		</g>
	</g>
</svg>
