<svg width="430" height="430" viewBox="0 0 430 430" fill="none"
	xmlns="http://www.w3.org/2000/svg">
	<path d="M209.108 57.24C209.108 57.24 486.97 80.56 364.135 247.78L301.093 320.16C301.093 320.16 357.44 374.18 295.347 401.8C233.254 429.42 222.91 427.01 222.91 427.01" fill="#1DA1F2"/>
	<path d="M222.91 427C222.91 427 198.314 429.4 136.221 401.79C74.1279 374.18 130.474 320.15 130.474 320.15L67.433 247.77C-55.4025 80.56 210.257 57.24 210.257 57.24" fill="#1DA1F2"/>
	<path d="M257.275 2.03C257.246 5.32 256.882 8.57 256.327 11.81C255.771 15.04 255.034 18.25 254.085 21.4C253.118 24.55 251.95 27.64 250.58 30.64C249.182 33.63 247.592 36.53 245.781 39.3C243.971 42.07 241.97 44.72 239.805 47.24C237.583 49.71 235.083 51.91 232.363 53.75C229.605 55.53 226.731 57.11 223.695 58.22C220.697 59.41 217.546 60.16 214.385 60.54L214.242 60.06C215.583 59.14 216.971 58.43 218.293 57.57C219.615 56.73 220.946 55.95 222.22 55.06C224.816 53.41 227.229 51.52 229.614 49.66C231.961 47.73 234.24 45.76 236.491 43.71C238.723 41.64 240.801 39.37 242.707 36.93C244.575 34.46 246.26 31.83 247.774 29.08C249.306 26.34 250.666 23.48 251.844 20.53C254.229 14.64 255.944 8.39 256.796 2L257.275 2.03Z" fill="black"/>
	<path d="M281.526 13.81C280.923 17.03 280.003 20.17 278.892 23.24C277.791 26.31 276.498 29.33 275.023 32.25C273.528 35.16 271.843 37.98 269.965 40.67C268.069 43.34 266 45.9 263.74 48.28C261.48 50.66 259.047 52.89 256.48 54.96C253.865 56.97 251.03 58.66 248.032 59.95C245.015 61.18 241.912 62.19 238.732 62.7C235.572 63.31 232.353 63.44 229.174 63.21L229.116 62.71C230.591 62.06 232.085 61.62 233.531 61.03C234.978 60.45 236.424 59.94 237.822 59.31C240.667 58.18 243.358 56.78 246.031 55.4C248.674 53.95 251.26 52.44 253.827 50.85C256.384 49.24 258.827 47.4 261.116 45.36C263.386 43.29 265.493 41.02 267.466 38.6C269.448 36.2 271.287 33.65 272.954 30.97C276.316 25.63 279.093 19.81 281.047 13.69L281.526 13.81Z" fill="black"/>
	<path d="M189.435 7.79999C192.098 8.44999 194.665 9.38999 197.174 10.53C199.683 11.66 202.126 13.01 204.444 14.58C206.752 16.18 208.945 18.02 210.899 20.16C212.834 22.32 214.548 24.76 215.813 27.49C217.086 30.21 217.996 33.16 218.427 36.21C218.494 36.97 218.648 37.74 218.638 38.5C218.638 39.27 218.648 40.03 218.628 40.8C218.475 42.31 218.341 43.84 217.948 45.29C217.757 46.02 217.584 46.75 217.374 47.46C217.115 48.16 216.876 48.86 216.607 49.55L216.205 50.58L215.736 51.57C215.429 52.23 215.094 52.88 214.759 53.53C214.069 54.81 213.246 56 212.479 57.19C211.598 58.32 210.717 59.44 209.75 60.48L209.338 60.22C209.683 58.8 210.123 57.47 210.535 56.14C210.89 54.79 211.301 53.47 211.656 52.16C211.809 51.49 211.962 50.83 212.144 50.18L212.403 49.21L212.585 48.22C212.7 47.56 212.843 46.92 212.977 46.27C213.083 45.62 213.159 44.97 213.255 44.32L213.408 43.36C213.447 43.04 213.456 42.71 213.485 42.39C213.523 41.75 213.629 41.11 213.658 40.47C213.686 39.19 213.792 37.91 213.715 36.64C213.657 34.09 213.236 31.52 212.326 29.1C211.426 26.68 210.095 24.41 208.505 22.32C206.924 20.22 205.066 18.3 203.036 16.57C198.994 13.08 194.272 10.31 189.311 8.24999L189.435 7.79999Z" fill="black"/>
	<path d="M202.212 263.73C202.212 287.43 201.034 303.86 189.56 310.55C186.916 312.09 176.381 309.35 173.459 309.35C169.121 309.35 162.186 311.44 158.508 308.15C149.017 299.65 145.856 284.76 145.856 263.73C145.856 234.56 158.47 210.91 174.025 210.91C189.579 210.91 202.212 234.56 202.212 263.73Z" fill="white"/>
	<path d="M183.238 312.35C192.765 312.35 200.488 300.526 200.488 285.94C200.488 271.354 192.765 259.53 183.238 259.53C173.712 259.53 165.989 271.354 165.989 285.94C165.989 300.526 173.712 312.35 183.238 312.35Z" fill="black"/>
	<path d="M199.482 316.09C195.613 314.6 191.638 313.38 187.625 312.47C183.621 311.51 179.56 310.86 175.509 310.67C173.479 310.56 171.458 310.63 169.465 310.83C167.473 311.01 165.51 311.27 163.575 311.66C163.087 311.74 162.598 311.83 162.119 311.96C161.64 312.09 161.152 312.18 160.683 312.33L159.256 312.75C158.796 312.93 158.326 313.1 157.857 313.27C155.999 314.01 154.198 314.95 152.388 316.07L152.197 315.85C154.754 312.29 158.767 309.88 162.933 308.74C167.138 307.5 171.515 307.81 175.691 308.28C179.886 308.79 183.995 309.76 187.989 311.03C191.964 312.35 195.872 313.88 199.597 315.83L199.482 316.09Z" fill="white"/>
	<path d="M186.112 308.76C192.147 308.76 197.04 303.652 197.04 297.35C197.04 291.048 192.147 285.94 186.112 285.94C180.076 285.94 175.183 291.048 175.183 297.35C175.183 303.652 180.076 308.76 186.112 308.76Z" fill="white"/>
	<path d="M230.955 267.33C230.955 291.03 232.133 307.46 243.607 314.15C246.251 315.69 256.786 312.95 259.708 312.95C264.046 312.95 270.981 315.04 274.659 311.75C284.15 303.25 287.311 288.36 287.311 267.33C287.311 238.16 274.697 214.51 259.143 214.51C243.569 214.51 230.955 238.16 230.955 267.33Z" fill="white"/>
	<path d="M266.029 314.75C275.556 314.75 283.279 302.926 283.279 288.34C283.279 273.754 275.556 261.93 266.029 261.93C256.502 261.93 248.779 273.754 248.779 288.34C248.779 302.926 256.502 314.75 266.029 314.75Z" fill="black"/>
	<path d="M233.57 319.42C237.296 317.48 241.194 315.95 245.178 314.62C249.172 313.36 253.271 312.38 257.476 311.87C261.652 311.4 266.029 311.09 270.234 312.33C274.41 313.47 278.413 315.88 280.97 319.44L280.779 319.66C278.969 318.55 277.168 317.61 275.31 316.86C274.841 316.69 274.371 316.52 273.912 316.34L272.484 315.92C272.015 315.77 271.527 315.68 271.048 315.55C270.569 315.42 270.09 315.33 269.592 315.25C267.657 314.87 265.694 314.61 263.702 314.42C261.709 314.22 259.689 314.15 257.658 314.26C253.607 314.46 249.546 315.11 245.542 316.06C241.529 316.97 237.564 318.19 233.685 319.68L233.57 319.42Z" fill="white"/>
	<path d="M266.604 312.36C272.639 312.36 277.532 307.252 277.532 300.95C277.532 294.648 272.639 289.54 266.604 289.54C260.568 289.54 255.675 294.648 255.675 300.95C255.675 307.252 260.568 312.36 266.604 312.36Z" fill="white"/>
	<path d="M289.964 194.96C290.587 196.45 291.037 198 291.362 199.59C291.535 200.38 291.631 201.19 291.774 202C291.841 202.81 291.937 203.63 291.985 204.45C292.109 207.73 291.698 211.08 290.644 214.25C290.443 215.07 290.108 215.83 289.782 216.6C289.456 217.37 289.188 218.18 288.748 218.89C288.336 219.62 287.914 220.34 287.474 221.05C286.976 221.72 286.42 222.32 285.874 222.94C284.811 224.22 283.441 225.13 282.168 226.11C280.827 227 279.361 227.68 277.905 228.27L277.752 228.02C278.748 226.71 279.859 225.64 280.875 224.49C281.344 223.87 281.852 223.31 282.33 222.73C282.57 222.44 282.848 222.18 283.068 221.88L283.719 220.96C284.16 220.36 284.629 219.78 285.079 219.19C285.482 218.56 285.893 217.95 286.334 217.34C286.813 216.76 287.129 216.08 287.502 215.43C287.866 214.77 288.25 214.12 288.499 213.4C289.715 210.62 290.385 207.56 290.548 204.45C290.769 201.34 290.462 198.15 289.705 195.08L289.964 194.96Z" fill="black"/>
	<path d="M280.568 198.3C281.641 200.36 282.311 202.61 282.733 204.95C283.125 207.29 283.135 209.75 282.646 212.16C282.465 213.38 282.034 214.55 281.65 215.75C281.114 216.87 280.539 218 279.658 218.87C278.04 220.73 275.875 221.94 273.624 222.49L273.481 222.23C273.816 221.71 274.18 221.27 274.534 220.83C274.889 220.39 275.291 220.02 275.588 219.55C276.21 218.65 276.929 217.89 277.436 216.97C278.068 216.15 278.509 215.23 279.122 214.39C279.601 213.48 280.137 212.57 280.424 211.54C281.066 209.52 281.344 207.32 281.306 205.1C281.277 202.87 280.932 200.61 280.31 198.43L280.568 198.3Z" fill="black"/>
	<path d="M296.678 214.13C296.822 216.47 296.525 218.81 295.969 221.11C295.385 223.4 294.408 225.64 292.991 227.61C292.33 228.64 291.477 229.51 290.644 230.43C289.705 231.21 288.728 231.99 287.579 232.39C285.367 233.37 282.915 233.52 280.645 233.03L280.616 232.73C281.133 232.41 281.641 232.16 282.139 231.92C282.637 231.67 283.145 231.52 283.604 231.22C284.533 230.68 285.491 230.3 286.315 229.69C287.215 229.22 287.991 228.58 288.882 228.09C289.686 227.48 290.529 226.88 291.209 226.08C292.607 224.53 293.747 222.66 294.6 220.62C295.471 218.59 296.065 216.38 296.372 214.13H296.678Z" fill="black"/>
	<path d="M204.875 191.36C205.497 192.85 205.947 194.4 206.273 195.99C206.445 196.78 206.541 197.59 206.685 198.4C206.752 199.21 206.848 200.03 206.896 200.85C207.02 204.13 206.608 207.48 205.555 210.65C205.354 211.47 205.018 212.23 204.693 213C204.367 213.77 204.099 214.58 203.658 215.29C203.246 216.02 202.825 216.74 202.384 217.45C201.886 218.12 201.331 218.72 200.785 219.34C199.722 220.62 198.352 221.53 197.078 222.51C195.737 223.4 194.272 224.08 192.816 224.67L192.663 224.42C193.659 223.11 194.77 222.04 195.785 220.89C196.255 220.27 196.762 219.71 197.241 219.13C197.481 218.84 197.758 218.58 197.979 218.28L198.63 217.36C199.071 216.76 199.54 216.18 199.99 215.59C200.392 214.96 200.804 214.35 201.245 213.74C201.724 213.16 202.04 212.48 202.413 211.83C202.777 211.17 203.16 210.52 203.409 209.8C204.626 207.02 205.296 203.96 205.459 200.85C205.679 197.74 205.373 194.55 204.616 191.48L204.875 191.36Z" fill="black"/>
	<path d="M195.479 194.7C196.552 196.76 197.222 199.01 197.643 201.35C198.036 203.69 198.046 206.15 197.557 208.56C197.375 209.78 196.944 210.95 196.561 212.15C196.025 213.27 195.45 214.4 194.569 215.27C192.95 217.13 190.786 218.34 188.535 218.89L188.391 218.63C188.726 218.11 189.09 217.67 189.445 217.23C189.799 216.79 190.201 216.42 190.498 215.95C191.121 215.05 191.839 214.29 192.347 213.37C192.979 212.55 193.42 211.63 194.033 210.79C194.511 209.88 195.048 208.97 195.335 207.94C195.977 205.92 196.255 203.72 196.216 201.5C196.188 199.27 195.843 197.01 195.22 194.83L195.479 194.7Z" fill="black"/>
	<path d="M211.589 210.53C211.732 212.87 211.435 215.21 210.88 217.51C210.296 219.8 209.319 222.04 207.901 224.01C207.24 225.04 206.388 225.91 205.555 226.83C204.616 227.61 203.639 228.39 202.49 228.79C200.277 229.77 197.825 229.92 195.555 229.43L195.527 229.13C196.044 228.81 196.552 228.56 197.05 228.32C197.548 228.07 198.055 227.92 198.515 227.62C199.444 227.08 200.402 226.7 201.226 226.09C202.126 225.62 202.902 224.98 203.792 224.49C204.597 223.88 205.44 223.28 206.12 222.48C207.518 220.93 208.658 219.06 209.51 217.02C210.382 214.99 210.976 212.78 211.282 210.53H211.589Z" fill="black"/>
</svg>
